M48
INCH
T01C0.0137
T02C0.1181
T03C0.0472
T04C0.0600
T05C0.0275
T06C0.0400
T07C0.0118
%
T01
X-030019Y+020177
X-032480Y+019192
X-033464Y+009350
X-031496Y+009842
X-015255Y+019685
X-017224Y+019192
X-018700Y+009350
X+006068Y+019532
X+003937Y+019192
X+018934Y+019138
X+020895Y+019345
X-008858Y-000984
X-011811Y-002460
X+025981Y+039777
X+027010Y+040559
X+006386Y+034655
X+006386Y+036421
X+008361Y+034649
X+008355Y+036414
X+004423Y+036414
X+004429Y+034655
X+002466Y+034655
X+002466Y+036414
X+000491Y+036413
X+000484Y+034647
X-001478Y+034654
X-003441Y+034654
X-003447Y+036407
X-005410Y+036429
X-005410Y+034676
X-007379Y+036423
X-007379Y+034682
X-009354Y+034701
X-009354Y+036404
X-003326Y+047086
X-009834Y+040934
X-002936Y+047101
X-008853Y+040943
X-002575Y+047008
X-007880Y+040943
X-002303Y+046830
X-006909Y+040944
X-002814Y+043503
X-005885Y+040944
X+001960Y+040910
X+004862Y+040944
X-003838Y+047047
X-010836Y+040871
X-001360Y+046855
X-004920Y+040946
X-001063Y+046979
X-003838Y+040944
X-000787Y+047145
X-002949Y+040938
X+000372Y+043226
X+000000Y+047086
X-000492Y+040944
X+000511Y+046574
X+000979Y+040919
X-000376Y+047224
X-001960Y+040905
X+002559Y+040944
X+001534Y+046830
X+001791Y+047086
X+003933Y+040949
X+002051Y+047289
X+003070Y+047598
X+007874Y+040944
X+002693Y+047566
X+006902Y+040922
X+002356Y+047457
X+005885Y+040944
X-000875Y+045078
X-000799Y+043370
X+001968Y+043011
X+000255Y+046830
X+000000Y+040944
X-000568Y+044895
X-000787Y+042814
X+002165Y+042716
X+020964Y+041240
X+021358Y+041535
X+002287Y+044851
X+002074Y+045110
X+039468Y+036417
X+042224Y+036417
X+036883Y+035050
X+022440Y+034055
X+023917Y+001771
X+021850Y+032086
X+023917Y+000688
X+020472Y+034055
X+023917Y-000492
X+019881Y+032086
X+023818Y-001279
X+018503Y+034055
X+023818Y-002362
X+017934Y+032085
X+023818Y-003248
X+016535Y+034055
X+023818Y-004330
X-024507Y+015585
X-009255Y+015587
X+011993Y+015587
X+026771Y+015589
X-023622Y+024901
X-008267Y+024901
X+012992Y+024901
X+027755Y+024901
X-023317Y+023622
X+028346Y+023622
X+013099Y+023622
X-027460Y+022637
X+024212Y+022637
X+008956Y+022637
X-012204Y+022637
X-024021Y+014302
X+026770Y+014304
X-028847Y+013242
X+020649Y+013246
X-025196Y+005708
X+025885Y+005708
X+011318Y+005708
X-010433Y+005708
X-013090Y+013242
X+011417Y+014302
X-009086Y+003904
X-009742Y-000920
X-009085Y+001278
X+008070Y+000492
X+004822Y-000492
X-005905Y-006102
X+006791Y-006102
X+006988Y-006889
X+003937Y-007874
X-006496Y-013484
X+006397Y-013484
X-001782Y-009421
X-005708Y-009547
X-010433Y-008956
X-012853Y-009990
X-010858Y-008541
X-010629Y-004330
X-010857Y-006780
X-009645Y-002165
X+008562Y-002165
X+012007Y-002165
X-003894Y-001960
X-000688Y-001968
X+010236Y-009251
X+006878Y-009613
X+002164Y-009221
X+001771Y-006496
X+003346Y-001574
X+000983Y-002282
X-005413Y+023615
X-007185Y+024901
X-006200Y+022637
X-004986Y+014901
X-006299Y-000492
X-006988Y-000492
X-005413Y-006889
X-009645Y+014302
X-003444Y+005708
X-003590Y-013484
X-000295Y-001181
X+020535Y-000365
X+027510Y+009879
X+020066Y+009866
X+018932Y+010303
X+019881Y+014862
X+019349Y+012488
X+020078Y+017322
X+020177Y+028740
X+019906Y+026189
X+020729Y+022152
X+020331Y+020102
X+015876Y+010114
X+005264Y+009910
X+005071Y+028833
X+004415Y+018566
X+004625Y+014862
X+004429Y+012598
X+004414Y+010954
X+004414Y+021317
X+006003Y+020767
X-003444Y+010531
X-009251Y+009940
X-015255Y+010826
X-016337Y+010012
X-016244Y+014954
X-007268Y+018868
X-003346Y+018897
X-015619Y+018503
X-015295Y+020718
X-014763Y+028740
X-014763Y+023129
X-014490Y+025453
X-022145Y+010826
X-021653Y+008366
X-020919Y+008303
X-020374Y+010039
X-031493Y+010801
X-029493Y+029176
X-029035Y+010039
X-024311Y+010039
X-026735Y+010039
X-030708Y+010039
X-030993Y+013230
X-030708Y+015452
X-030385Y+017421
X-030233Y+020686
X-029724Y+023031
X-029493Y+025492
X+021544Y-001602
X+016240Y-002362
X+021161Y-002362
X+012007Y+010114
X+009645Y+010114
X+007283Y+010114
X+015059Y+008464
X+015581Y-003544
X+021190Y-003544
X+014173Y+007874
X+014763Y-004330
X+021207Y-004328
X-001771Y+006299
X+016732Y+006496
X+017125Y+001574
X+020275Y+001574
X+008759Y+024901
X+009413Y+033167
X+007086Y+023720
X+008858Y+034645
X+006102Y+014566
X+007480Y+033169
X+017716Y+005708
X+016542Y+029846
X+007149Y+030290
X+003444Y+022637
X+005019Y+034547
X+002755Y+015585
X+003507Y+033273
X+007925Y+013242
X+005511Y+033267
X-007086Y+050492
X-006397Y+049458
X-004921Y+034645
X-005708Y+051574
X-004295Y+029799
X+017545Y+029568
X+020288Y+002328
X-006869Y+034699
X-006761Y+051903
X-002759Y+051915
X-002851Y+034490
X-001745Y+047779
X+000596Y+048253
X-004133Y+033661
X-015408Y+035117
X-015354Y+048228
X+003020Y+034692
X+001968Y+021653
X+013871Y+019230
X+017175Y+018356
X+001642Y+033464
X+011122Y+034153
X+011486Y+044300
X+019192Y+044291
X+000688Y+031003
X+033116Y+030743
X+033293Y+014716
X+037500Y+014665
X-000944Y+034601
X-001279Y+031003
X-030413Y+031003
X-008041Y+033525
X-008142Y+031451
X-028393Y+031553
X-008854Y+035001
X-011364Y+038747
X-011712Y+035433
X-015924Y+046196
X-018265Y+047044
X-012893Y+034547
X-013061Y+043224
X-022279Y+044187
X+013431Y+050665
X+009251Y+051181
X+005216Y+051968
X-010925Y+050000
X+001237Y+052368
X-015342Y+052814
X+016535Y+048228
X+015944Y+051181
X-028369Y+039213
X-010238Y+048793
X+023425Y+044291
X+026771Y+041732
X+029550Y+039009
X+039566Y+010039
X+033236Y+006166
X+038976Y+006200
X+028838Y+014370
X+039763Y+014271
X+026113Y+044004
X+028424Y+019853
X+039587Y+017856
X+020075Y+046420
X+020567Y+039499
X+027995Y+038991
X+027519Y+022658
X+038974Y+021701
X-017086Y+052795
X-017544Y+039349
X-017743Y+047783
X-018603Y+032119
X-036937Y+031373
X-038196Y+013544
X-028378Y+010982
X-002854Y+033956
X-014763Y+035236
X-014862Y+044488
X-012401Y+034645
X-012401Y+036023
X-037401Y+005807
X-032972Y+003937
X-018731Y+003698
X-018700Y-019389
X+012992Y-022047
X+020476Y-020118
X-021948Y-016973
X-020218Y-019942
X+004921Y-023720
X+000995Y-011588
X+000984Y-024015
X+034332Y+032923
X+033858Y+002165
X+034845Y+028374
X+034350Y-001612
X+036614Y-001771
X+016732Y-014173
X+016732Y-020767
X-017715Y-018737
X-020767Y-016043
X+036187Y+024597
X+034645Y+022342
X+035039Y+019586
X+035236Y-006496
X+035826Y+009842
X+035236Y-007578
X+035531Y+013385
X+035213Y-007045
X+034581Y-005679
X+004933Y-018927
X+034662Y-005144
X+008623Y-018332
X+009055Y-023228
X+029921Y-011515
X+023228Y-011515
X+000995Y-018376
X+027165Y-014173
X+014665Y-014763
X-003346Y-024015
X+036023Y+006003
X+035236Y-008070
X+023818Y-016633
X+013287Y-016929
X-007086Y-023425
X-036215Y+001993
X-003346Y-018503
X-026870Y-008070
X-006988Y-018011
X-027952Y-005216
X-009429Y-020412
X-009448Y-017618
X-033267Y-001377
X-014370Y-019881
X-014574Y-017274
X-033477Y+005955
X-022539Y-010137
X-036712Y+009744
X-037992Y+009744
X-024704Y-013877
X-024901Y-007480
X-030936Y+036058
X-033759Y+034940
X-035158Y+005952
X-036811Y+013582
X-035826Y+034842
X-033070Y+038681
X-034153Y+001968
X-034448Y+014566
X-031514Y+033438
X-010314Y+033439
X-000010Y+033133
X-006299Y+033366
X-033070Y+032578
X-025382Y+041504
X-025172Y+038763
X+019554Y-015739
X+019192Y-012106
X+013353Y-002304
X+013022Y+032060
X+031830Y-003577
X+012716Y-004168
X+011614Y+032480
X-000688Y+032480
X-037437Y+030001
X-005251Y+029749
X-002580Y+010992
X-006003Y+029625
X-016879Y+029576
X-015922Y+053740
X-000984Y+053740
X-034842Y+029074
X-034842Y-001870
X-027781Y-010884
X-026082Y-006102
X-036515Y+012992
X-037696Y+012992
X-038188Y+017618
X+001591Y-008396
X-024000Y-007636
X-025590Y-003937
X-035090Y-003496
X+027165Y-010826
X-008956Y-007874
X-009940Y+013242
X+002362Y-004035
X+002755Y+005019
X+002719Y+000912
X-004538Y+001301
X+007771Y+001307
X-000787Y-021850
X-008661Y-021456
X-008070Y-009055
X-008070Y-009547
X-017125Y-016929
X-014763Y+029527
X+001377Y+028937
X-029330Y-003149
X-029133Y+032677
X+001377Y+031355
X+000936Y+034870
X-032480Y-002559
X-015748Y-002362
X-016580Y+010885
X-016244Y+012662
X-004133Y+000492
X-005409Y+023615
X-007874Y+023622
X+021653Y-014960
X+033267Y+036614
X+029921Y+030708
X+028937Y+010826
X+029527Y+008267
X+030314Y+018613
X+028444Y+019192
X+026870Y+044881
X+026110Y+045315
X+008464Y+045669
X+020964Y+046259
X+008858Y+046062
X+020968Y+046828
X+003538Y+047510
X+008854Y+040949
X+003838Y+044291
X+009864Y+040944
X+004330Y+047047
X+022145Y+042125
X+021653Y+047637
X+001673Y+043307
X+001870Y+045472
X+004330Y+047539
X-000984Y+045493
X-001031Y+043059
X+034055Y+049311
X+039975Y+047420
X+039862Y+038090
X+040354Y+041043
X+039763Y+053346
X+042579Y+052691
X+040588Y+034217
X+041633Y+052263
X+020866Y-010433
X+027066Y-017913
X+028543Y-022637
X+026574Y+038681
X+028346Y+049803
X+023129Y+040846
X+028740Y+042519
X+023425Y+040452
X+028641Y+041338
X+029921Y+055413
X+035137Y+046850
X+004330Y+046555
X+007578Y+046555
X+030905Y+047440
X+022440Y+041437
X+015059Y+053149
X-005019Y+043700
X-002755Y+043110
X+004232Y+043897
X+000590Y+041830
X+005314Y+044980
X+000984Y+046751
X-001574Y+047244
X-004625Y+047047
X+025098Y+055413
X+038287Y+042027
X+038287Y+039074
X+019192Y+041043
X+018700Y+039514
X+022539Y+038877
X-032874Y-005314
X-038188Y+025295
X-036417Y+025295
X-030708Y-008366
X-030524Y+000026
X-036231Y+012379
X-015912Y+035813
X-036417Y+034878
X-037401Y+021456
X+022933Y-004724
X+006348Y+023090
X+004414Y+023129
X+006692Y+025492
X+004414Y+025590
X+015799Y-034968
X+009278Y-031083
X+007480Y-031102
X+008366Y-032185
X+015944Y-027952
X+035826Y-026476
X+039665Y-025196
X+039566Y-018110
X+035531Y-018208
X+038976Y-025196
X+038976Y-022637
X+031102Y-022637
X+037598Y-025196
X+037490Y-019260
X+031299Y-018897
X+036220Y-025187
X+036026Y-021623
X+038287Y-025196
X+038287Y-018700
X+036909Y-025196
X+036575Y-015733
X+032381Y-021653
X+028937Y-021653
X+026042Y+040965
X+025688Y+051474
X+025446Y+053288
X+028543Y-019685
X+028149Y-019291
X+026082Y+050098
X+027657Y-018700
X+026377Y+050787
X+032825Y+051172
X-031496Y-033759
X-034055Y-033759
X-032775Y-031692
X-032775Y-031397
X+018897Y-031397
X+018503Y-031397
X+024409Y-031102
X+024704Y-031109
X+018897Y-031102
X+024114Y-031102
X+018503Y-031102
X+015157Y+035629
X+019685Y+033759
X+015157Y+034842
X+021653Y+033759
X+015157Y+036417
X+017716Y+033759
X+015157Y+037204
X+014763Y+034055
X+013188Y+037204
X+013188Y+036417
X+013188Y+035629
X+013188Y+034842
X+013188Y+033070
X+013188Y+031102
X+023818Y+032086
X+022933Y-002869
X+022933Y-000894
X+022933Y+001050
X+029921Y-006496
X+034251Y-006299
X+038191Y+002165
X+012992Y-020129
X+012992Y-018742
X+029657Y-001330
X+029330Y-005905
X+029330Y-005314
X+023916Y+002332
X+025286Y+001968
X+025286Y+000000
X+025286Y-001968
X+025286Y-003937
X+028937Y+004921
X+028937Y+003543
X+028937Y+002165
X+028937Y+000787
X+028937Y-000590
X+028740Y-001968
X+028740Y-003346
X+028740Y-004330
X-001484Y+036400
X+022834Y+041141
X+028051Y+042519
X+027890Y+051492
X+004724Y-030314
X+004232Y-030511
X-019685Y+007283
X-011811Y+011417
X+001870Y+007480
X+000196Y+017519
X+010629Y+021062
X+010039Y+012106
X-010236Y+021062
X-025787Y+021456
X-025787Y+023622
X-025196Y+035137
X-021456Y+035137
X-021456Y+037598
X-014074Y+041043
X-014173Y+045472
X-015944Y+035039
X-015944Y+034251
X-015944Y+032086
X-015255Y+032086
X-000295Y+030708
X-000295Y+030118
X-000295Y+028149
X-000295Y+026082
T02
X-039370Y+055118
X+039370Y+055118
X-039370Y-035433
X+039370Y-035433
T03
X+041535Y+027263
X+041535Y+028263
X+041535Y+029263
X+041535Y+030263
X+041535Y+031263
X+041535Y+032263
X-033562Y-027066
X-031988Y-027066
X-031200Y-027854
X-034350Y-027854
X-032775Y-027854
X-033562Y-028641
X-031988Y-028641
X-031200Y-029527
X-034350Y-029527
T04
X+040157Y-030807
X+040157Y-028807
T05
X+021653Y+055905
X+020472Y+055511
X+019291Y+055118
X+021653Y+054330
X+020472Y+053937
X+019291Y+053543
X+021653Y+052755
X+021653Y+049606
X+035236Y+055511
X+036417Y+055118
X+034055Y+054330
X+035236Y+053937
X+035236Y+052362
X+036417Y+051968
X+034055Y+051181
X+035236Y+050787
X+030314Y+045669
X+028740Y+045669
X+027165Y+045669
X+036417Y+050393
T06
X-035629Y+056496
X-034629Y+056496
T07
X+029133Y-031102
X+026574Y-031112
X+027755Y-031112
X+031003Y-031112
M30
